<mxfile host="app.diagrams.net" modified="2023-08-24T13:51:53.724Z" agent="Mozilla/5.0 (Windows NT 10.0; Win64; x64) AppleWebKit/537.36 (KHTML, like Gecko) Chrome/116.0.0.0 Safari/537.36" etag="bJrSMOQEkMkCqfWlEE-a" version="21.6.9" type="github">
  <diagram name="Page-1" id="edf60f1a-56cd-e834-aa8a-f176f3a09ee4">
    <mxGraphModel dx="838" dy="455" grid="1" gridSize="10" guides="1" tooltips="1" connect="1" arrows="1" fold="1" page="1" pageScale="1" pageWidth="1100" pageHeight="850" background="none" math="0" shadow="0">
      <root>
        <mxCell id="0" />
        <mxCell id="1" parent="0" />
        <mxCell id="vmSaEW2aksYmcbdsKqk3-27" value="" style="endArrow=none;html=1;rounded=0;exitX=1;exitY=0.5;exitDx=0;exitDy=0;entryX=0;entryY=0.5;entryDx=0;entryDy=0;" edge="1" parent="1" source="vmSaEW2aksYmcbdsKqk3-22" target="vmSaEW2aksYmcbdsKqk3-24">
          <mxGeometry relative="1" as="geometry">
            <mxPoint x="737" y="543" as="sourcePoint" />
            <mxPoint x="897" y="543" as="targetPoint" />
          </mxGeometry>
        </mxCell>
        <mxCell id="vmSaEW2aksYmcbdsKqk3-23" value="" style="endArrow=none;html=1;rounded=0;exitX=1;exitY=0.5;exitDx=0;exitDy=0;entryX=0;entryY=0.5;entryDx=0;entryDy=0;" edge="1" parent="1" source="vmSaEW2aksYmcbdsKqk3-41" target="vmSaEW2aksYmcbdsKqk3-22">
          <mxGeometry relative="1" as="geometry">
            <mxPoint x="597" y="542.9999999999999" as="sourcePoint" />
            <mxPoint x="707" y="543" as="targetPoint" />
          </mxGeometry>
        </mxCell>
        <mxCell id="vmSaEW2aksYmcbdsKqk3-17" value="" style="endArrow=none;html=1;rounded=0;entryX=0;entryY=0.5;entryDx=0;entryDy=0;exitX=1;exitY=0.5;exitDx=0;exitDy=0;" edge="1" parent="1" source="vmSaEW2aksYmcbdsKqk3-4" target="vmSaEW2aksYmcbdsKqk3-41">
          <mxGeometry relative="1" as="geometry">
            <mxPoint x="377" y="543" as="sourcePoint" />
            <mxPoint x="497" y="542.9999999999999" as="targetPoint" />
          </mxGeometry>
        </mxCell>
        <mxCell id="vmSaEW2aksYmcbdsKqk3-6" value="" style="endArrow=none;html=1;rounded=0;exitX=1;exitY=0.5;exitDx=0;exitDy=0;entryX=0;entryY=0.5;entryDx=0;entryDy=0;" edge="1" parent="1" source="vmSaEW2aksYmcbdsKqk3-3" target="vmSaEW2aksYmcbdsKqk3-4">
          <mxGeometry relative="1" as="geometry">
            <mxPoint x="187" y="543" as="sourcePoint" />
            <mxPoint x="347" y="543" as="targetPoint" />
          </mxGeometry>
        </mxCell>
        <mxCell id="vmSaEW2aksYmcbdsKqk3-3" value="Cliente Avulso" style="whiteSpace=wrap;html=1;align=center;" vertex="1" parent="1">
          <mxGeometry x="257" y="498" width="100" height="40" as="geometry" />
        </mxCell>
        <mxCell id="vmSaEW2aksYmcbdsKqk3-4" value="Recebe" style="shape=rhombus;perimeter=rhombusPerimeter;whiteSpace=wrap;html=1;align=center;" vertex="1" parent="1">
          <mxGeometry x="397" y="493" width="60" height="50" as="geometry" />
        </mxCell>
        <mxCell id="vmSaEW2aksYmcbdsKqk3-22" value="Recebe" style="shape=rhombus;perimeter=rhombusPerimeter;whiteSpace=wrap;html=1;align=center;" vertex="1" parent="1">
          <mxGeometry x="637" y="493" width="60" height="50" as="geometry" />
        </mxCell>
        <mxCell id="vmSaEW2aksYmcbdsKqk3-24" value="Cliente Mensalista" style="whiteSpace=wrap;html=1;align=center;" vertex="1" parent="1">
          <mxGeometry x="737" y="498" width="100" height="40" as="geometry" />
        </mxCell>
        <mxCell id="vmSaEW2aksYmcbdsKqk3-28" value="Cor" style="ellipse;whiteSpace=wrap;html=1;align=center;" vertex="1" parent="1">
          <mxGeometry x="237" y="423" width="40" height="30" as="geometry" />
        </mxCell>
        <mxCell id="vmSaEW2aksYmcbdsKqk3-29" value="Marca" style="ellipse;whiteSpace=wrap;html=1;align=center;" vertex="1" parent="1">
          <mxGeometry x="337" y="423" width="40" height="30" as="geometry" />
        </mxCell>
        <mxCell id="vmSaEW2aksYmcbdsKqk3-30" value="Placa" style="ellipse;whiteSpace=wrap;html=1;align=center;" vertex="1" parent="1">
          <mxGeometry x="287" y="423" width="40" height="30" as="geometry" />
        </mxCell>
        <mxCell id="vmSaEW2aksYmcbdsKqk3-32" value="Status" style="ellipse;whiteSpace=wrap;html=1;align=center;" vertex="1" parent="1">
          <mxGeometry x="477" y="258" width="50" height="30" as="geometry" />
        </mxCell>
        <mxCell id="vmSaEW2aksYmcbdsKqk3-33" value="Número" style="ellipse;whiteSpace=wrap;html=1;align=center;" vertex="1" parent="1">
          <mxGeometry x="567" y="258" width="50" height="30" as="geometry" />
        </mxCell>
        <mxCell id="vmSaEW2aksYmcbdsKqk3-34" value="" style="endArrow=none;html=1;rounded=0;entryX=0.5;entryY=0;entryDx=0;entryDy=0;exitX=0.5;exitY=1;exitDx=0;exitDy=0;" edge="1" parent="1" source="vmSaEW2aksYmcbdsKqk3-32" target="vmSaEW2aksYmcbdsKqk3-40">
          <mxGeometry relative="1" as="geometry">
            <mxPoint x="457" y="278" as="sourcePoint" />
            <mxPoint x="547" y="313" as="targetPoint" />
            <Array as="points" />
          </mxGeometry>
        </mxCell>
        <mxCell id="vmSaEW2aksYmcbdsKqk3-35" value="" style="endArrow=none;html=1;rounded=0;entryX=0.5;entryY=0;entryDx=0;entryDy=0;exitX=0.5;exitY=1;exitDx=0;exitDy=0;" edge="1" parent="1" source="vmSaEW2aksYmcbdsKqk3-33" target="vmSaEW2aksYmcbdsKqk3-40">
          <mxGeometry relative="1" as="geometry">
            <mxPoint x="537" y="238" as="sourcePoint" />
            <mxPoint x="547" y="313" as="targetPoint" />
            <Array as="points" />
          </mxGeometry>
        </mxCell>
        <mxCell id="vmSaEW2aksYmcbdsKqk3-37" value="" style="endArrow=none;html=1;rounded=0;exitX=0.5;exitY=1;exitDx=0;exitDy=0;entryX=0.5;entryY=0;entryDx=0;entryDy=0;" edge="1" parent="1" source="vmSaEW2aksYmcbdsKqk3-28" target="vmSaEW2aksYmcbdsKqk3-3">
          <mxGeometry relative="1" as="geometry">
            <mxPoint x="257" y="478" as="sourcePoint" />
            <mxPoint x="417" y="478" as="targetPoint" />
          </mxGeometry>
        </mxCell>
        <mxCell id="vmSaEW2aksYmcbdsKqk3-38" value="" style="endArrow=none;html=1;rounded=0;entryX=0.5;entryY=0;entryDx=0;entryDy=0;exitX=0.5;exitY=1;exitDx=0;exitDy=0;" edge="1" parent="1" source="vmSaEW2aksYmcbdsKqk3-30" target="vmSaEW2aksYmcbdsKqk3-3">
          <mxGeometry relative="1" as="geometry">
            <mxPoint x="287" y="488" as="sourcePoint" />
            <mxPoint x="342" y="523" as="targetPoint" />
          </mxGeometry>
        </mxCell>
        <mxCell id="vmSaEW2aksYmcbdsKqk3-39" value="" style="endArrow=none;html=1;rounded=0;exitX=0.5;exitY=1;exitDx=0;exitDy=0;entryX=0.5;entryY=0;entryDx=0;entryDy=0;" edge="1" parent="1" source="vmSaEW2aksYmcbdsKqk3-29" target="vmSaEW2aksYmcbdsKqk3-3">
          <mxGeometry relative="1" as="geometry">
            <mxPoint x="272" y="488" as="sourcePoint" />
            <mxPoint x="317" y="543" as="targetPoint" />
          </mxGeometry>
        </mxCell>
        <mxCell id="vmSaEW2aksYmcbdsKqk3-40" value="Vaga" style="whiteSpace=wrap;html=1;align=center;" vertex="1" parent="1">
          <mxGeometry x="497" y="338" width="100" height="40" as="geometry" />
        </mxCell>
        <mxCell id="vmSaEW2aksYmcbdsKqk3-41" value="Comprovante" style="whiteSpace=wrap;html=1;align=center;" vertex="1" parent="1">
          <mxGeometry x="497" y="498" width="100" height="40" as="geometry" />
        </mxCell>
        <mxCell id="vmSaEW2aksYmcbdsKqk3-43" value="Refere-se" style="shape=rhombus;perimeter=rhombusPerimeter;whiteSpace=wrap;html=1;align=center;" vertex="1" parent="1">
          <mxGeometry x="507" y="418" width="80" height="40" as="geometry" />
        </mxCell>
        <mxCell id="vmSaEW2aksYmcbdsKqk3-46" value="Entrada" style="ellipse;whiteSpace=wrap;html=1;align=center;" vertex="1" parent="1">
          <mxGeometry x="517" y="573" width="60" height="20" as="geometry" />
        </mxCell>
        <mxCell id="vmSaEW2aksYmcbdsKqk3-47" value="Nome" style="ellipse;whiteSpace=wrap;html=1;align=center;" vertex="1" parent="1">
          <mxGeometry x="802" y="418" width="60" height="40" as="geometry" />
        </mxCell>
        <mxCell id="vmSaEW2aksYmcbdsKqk3-48" value="Valor Mensal" style="ellipse;whiteSpace=wrap;html=1;align=center;" vertex="1" parent="1">
          <mxGeometry x="712" y="418" width="60" height="40" as="geometry" />
        </mxCell>
        <mxCell id="vmSaEW2aksYmcbdsKqk3-49" value="Saída" style="ellipse;whiteSpace=wrap;html=1;align=center;" vertex="1" parent="1">
          <mxGeometry x="587" y="573" width="40" height="20" as="geometry" />
        </mxCell>
        <mxCell id="vmSaEW2aksYmcbdsKqk3-50" value="Valor" style="ellipse;whiteSpace=wrap;html=1;align=center;" vertex="1" parent="1">
          <mxGeometry x="467" y="573" width="40" height="20" as="geometry" />
        </mxCell>
        <mxCell id="vmSaEW2aksYmcbdsKqk3-52" value="" style="endArrow=none;html=1;rounded=0;exitX=0.5;exitY=0;exitDx=0;exitDy=0;entryX=0.5;entryY=1;entryDx=0;entryDy=0;" edge="1" parent="1" source="vmSaEW2aksYmcbdsKqk3-50" target="vmSaEW2aksYmcbdsKqk3-41">
          <mxGeometry relative="1" as="geometry">
            <mxPoint x="447" y="548" as="sourcePoint" />
            <mxPoint x="607" y="548" as="targetPoint" />
          </mxGeometry>
        </mxCell>
        <mxCell id="vmSaEW2aksYmcbdsKqk3-53" value="" style="endArrow=none;html=1;rounded=0;exitX=0.5;exitY=1;exitDx=0;exitDy=0;entryX=0.5;entryY=0;entryDx=0;entryDy=0;" edge="1" parent="1" source="vmSaEW2aksYmcbdsKqk3-41" target="vmSaEW2aksYmcbdsKqk3-46">
          <mxGeometry relative="1" as="geometry">
            <mxPoint x="427" y="658" as="sourcePoint" />
            <mxPoint x="587" y="658" as="targetPoint" />
          </mxGeometry>
        </mxCell>
        <mxCell id="vmSaEW2aksYmcbdsKqk3-54" value="" style="endArrow=none;html=1;rounded=0;exitX=0.5;exitY=1;exitDx=0;exitDy=0;entryX=0.5;entryY=0;entryDx=0;entryDy=0;" edge="1" parent="1" source="vmSaEW2aksYmcbdsKqk3-41" target="vmSaEW2aksYmcbdsKqk3-49">
          <mxGeometry relative="1" as="geometry">
            <mxPoint x="547" y="578" as="sourcePoint" />
            <mxPoint x="707" y="578" as="targetPoint" />
          </mxGeometry>
        </mxCell>
        <mxCell id="vmSaEW2aksYmcbdsKqk3-55" value="" style="endArrow=none;html=1;rounded=0;exitX=0.5;exitY=1;exitDx=0;exitDy=0;entryX=0.5;entryY=0;entryDx=0;entryDy=0;" edge="1" parent="1" source="vmSaEW2aksYmcbdsKqk3-48" target="vmSaEW2aksYmcbdsKqk3-24">
          <mxGeometry relative="1" as="geometry">
            <mxPoint x="677" y="478" as="sourcePoint" />
            <mxPoint x="837" y="478" as="targetPoint" />
          </mxGeometry>
        </mxCell>
        <mxCell id="vmSaEW2aksYmcbdsKqk3-56" value="" style="endArrow=none;html=1;rounded=0;exitX=0.5;exitY=0;exitDx=0;exitDy=0;entryX=0.5;entryY=1;entryDx=0;entryDy=0;" edge="1" parent="1" source="vmSaEW2aksYmcbdsKqk3-24" target="vmSaEW2aksYmcbdsKqk3-47">
          <mxGeometry relative="1" as="geometry">
            <mxPoint x="677" y="478" as="sourcePoint" />
            <mxPoint x="837" y="498" as="targetPoint" />
          </mxGeometry>
        </mxCell>
        <mxCell id="vmSaEW2aksYmcbdsKqk3-57" value="" style="endArrow=none;html=1;rounded=0;exitX=0.5;exitY=1;exitDx=0;exitDy=0;entryX=0.5;entryY=0;entryDx=0;entryDy=0;" edge="1" parent="1" source="vmSaEW2aksYmcbdsKqk3-43" target="vmSaEW2aksYmcbdsKqk3-41">
          <mxGeometry relative="1" as="geometry">
            <mxPoint x="467" y="478" as="sourcePoint" />
            <mxPoint x="627" y="478" as="targetPoint" />
          </mxGeometry>
        </mxCell>
        <mxCell id="vmSaEW2aksYmcbdsKqk3-58" value="" style="endArrow=none;html=1;rounded=0;exitX=0.5;exitY=1;exitDx=0;exitDy=0;entryX=0.5;entryY=0;entryDx=0;entryDy=0;" edge="1" parent="1" source="vmSaEW2aksYmcbdsKqk3-40" target="vmSaEW2aksYmcbdsKqk3-43">
          <mxGeometry relative="1" as="geometry">
            <mxPoint x="467" y="478" as="sourcePoint" />
            <mxPoint x="627" y="478" as="targetPoint" />
          </mxGeometry>
        </mxCell>
      </root>
    </mxGraphModel>
  </diagram>
</mxfile>
